<svg viewBox="0 0 120 120" xmlns="http://www.w3.org/2000/svg">
    <g>
        <path stroke-width="13" id="svg_2"
              d="m97.86552,36.75016c-0.35586,-16.71283 -12.63492,-30.13845 -27.73407,-30.14696c-10.09416,0.00852 -18.91029,6.01236 -23.75457,14.9798c-2.27673,-1.39238 -4.89785,-2.20567 -7.69115,-2.20567c-8.72047,0.00852 -15.81469,7.69429 -16.13229,17.31321c-9.15668,3.34682 -15.78408,12.88059 -15.79174,24.21125c0,14.10265 10.28166,25.54827 22.95867,25.54827l0,-0.00852l60.7448,0c12.67318,0 22.95867,-11.44563 22.95867,-25.54827c-0.01531,-11.23272 -6.52791,-20.72391 -15.55832,-24.14312z" stroke="#000" fill="#fff"/>
        <path id="svg_7" d="m86.31105,81.93437l9.07849,-4.80158c-0.17847,-1.77904 -0.52338,-3.50481 -0.95486,-5.20133l-10.08491,-1.39651c-0.87288,-2.10273 -2.02556,-4.05296 -3.3805,-5.84318l3.84423,-9.45455c-1.26405,-1.23277 -2.62918,-2.3567 -4.066,-3.39089l-8.56339,5.37599c-2.00813,-1.05603 -4.17169,-1.8581 -6.44291,-2.37322l-3.09468,-9.58733c-0.87768,-0.06628 -1.75511,-0.1363 -2.65017,-0.1363s-1.77001,0.0684 -2.65033,0.1363l-3.06402,9.5024c-2.33211,0.49862 -4.54344,1.31 -6.60318,2.37907l-8.43003,-5.29691c-1.435,1.03418 -2.80007,2.15812 -4.06402,3.39089l3.73844,9.19339c-1.45706,1.86742 -2.67695,3.92785 -3.5932,6.14851l-9.76654,1.35072c-0.42966,1.69414 -0.77638,3.41808 -0.95301,5.20112l8.76571,4.6378c0.09931,2.44135 0.50407,4.80743 1.22081,7.03553l-6.61238,7.31128c0.76919,1.5954 1.62557,3.1426 2.61625,4.59416l9.73523,-2.08996c1.59616,1.73671 3.41472,3.25834 5.42114,4.51668l-0.369,9.96059c1.59885,0.7211 3.26008,1.32461 4.97203,1.807l6.15892,-7.91668c1.09278,0.13951 2.19937,0.23348 3.32805,0.23348c1.22272,0 2.41847,-0.11046 3.59497,-0.2721l6.191,7.9606c1.71464,-0.48184 3.37334,-1.08531 4.97202,-1.80645l-0.37612,-10.13947c1.91238,-1.23807 3.64647,-2.71926 5.17526,-4.39156l9.98841,2.14323c0.99069,-1.45134 1.84718,-2.99689 2.6161,-4.59363l-6.82654,-7.55066c0.65577,-2.11046 1.02208,-4.33834 1.12873,-6.63644l0,0z" stroke-width="5" stroke="#000" fill="#fff"/>
        <path id="svg_11" d="m191.00183,43.78067" opacity="NaN" stroke-width="5" stroke="#000" fill="#fff"/>
        <ellipse ry="12.45645" rx="12.45645" id="svg_12" cy="81.23693" cx="60" stroke-width="9" stroke="#000" fill="#fff"/>
    </g>
</svg>
