<svg xmlns="http://www.w3.org/2000/svg" viewBox="0 0 64 64" width="64" height="64">
    <g transform="scale(0.7) translate(13, -2)">
        <path d="M47,11a11,11,0,0,1,0,22H19a10,10,0,0,1-1-19.9,7,7,0,0,1,14-2.1,6.5,6.5,0,0,1,15-2" fill="black"/>
    </g>
    <g transform="scale(1.2) translate(-8, -7)">
        <path d="M12,28 Q22,29 35,27 T58,28" stroke="black" stroke-width="2" fill="none"/>
        <path d="M12,35 Q22,36 35,34 T58,35" stroke="black" stroke-width="2" fill="none"/>
        <path d="M12,42 Q22,43 35,41 T58,42" stroke="black" stroke-width="2" fill="none"/>
        <path d="M12,49 Q22,50 35,48 T58,49" stroke="black" stroke-width="2" fill="none"/>
        <path d="M12,56 Q22,57 35,55 T58,56" stroke="black" stroke-width="2" fill="none"/>
    </g>
</svg>
